<?xml version="1.0" encoding="UTF-8" standalone="no"?>
<svg
   width="94.610764"
   height="236"
   viewBox="0 0 94.610764 236"
   version="1.1"
   id="svg1"
   sodipodi:docname="ibm-eye-bee-m-white_on_trans_vertical.svg"
   inkscape:version="1.4.2 (ebf0e940d0, 2025-05-08)"
   xmlns:inkscape="http://www.inkscape.org/namespaces/inkscape"
   xmlns:sodipodi="http://sodipodi.sourceforge.net/DTD/sodipodi-0.dtd"
   xmlns="http://www.w3.org/2000/svg"
   xmlns:svg="http://www.w3.org/2000/svg"
   xmlns:rdf="http://www.w3.org/1999/02/22-rdf-syntax-ns#"
   xmlns:cc="http://creativecommons.org/ns#"
   xmlns:dc="http://purl.org/dc/elements/1.1/">
  <sodipodi:namedview
     id="namedview1"
     pagecolor="#505050"
     bordercolor="#ffffff"
     borderopacity="1"
     inkscape:showpageshadow="0"
     inkscape:pageopacity="0"
     inkscape:pagecheckerboard="1"
     inkscape:deskcolor="#505050"
     inkscape:zoom="2.9263393"
     inkscape:cx="46.987033"
     inkscape:cy="118.40732"
     inkscape:window-width="3840"
     inkscape:window-height="2124"
     inkscape:window-x="0"
     inkscape:window-y="0"
     inkscape:window-maximized="1"
     inkscape:current-layer="Group-57" />
  <!-- Generator: Sketch 51.3 (57544) - http://www.bohemiancoding.com/sketch -->
  <title
     id="title1">Group 57</title>
  <desc
     id="desc1">Created with Sketch.</desc>
  <defs
     id="defs1" />
  <g
     id="Desktop"
     stroke="none"
     stroke-width="1"
     fill="none"
     fill-rule="evenodd"
     transform="translate(-176.9999,-106)">
    <g
       id="Icons-Copy-2"
       transform="translate(-354,-4720)">
      <g
         id="Group-57"
         transform="translate(354,4720)"
         style="display:inline">
        <rect
           id="Rectangle-5-Copy-8"
           fill="#000000"
           x="0"
           y="0"
           width="448"
           height="448"
           style="display:none" />
        <g
           id="Group-45"
           transform="translate(177,106)">
          <path
             d="m 47.347896,59 c 5.161148,0 9.344262,-4.225973 9.344262,-9.44 0,-5.214027 -4.183114,-9.44 -9.344262,-9.44 -5.161147,0 -9.344262,4.225973 -9.344262,9.44 0,5.214027 4.183115,9.44 9.344262,9.44"
             id="Fill-1"
             fill="#f3f3f3"
             style="fill:#000000" />
          <path
             d="m 47.347896,28.32 c 11.611803,0 21.02459,9.509227 21.02459,21.24 0,11.730773 -9.412787,21.24 -21.02459,21.24 -11.612841,0 -21.02459,-9.509227 -21.02459,-21.24 0,-11.730773 9.411749,-21.24 21.02459,-21.24 m 0,47.2 C 64.153033,75.52 78.570191,64.81504 84.724945,49.56 78.570191,34.30496 64.153033,23.6 47.347896,23.6 30.541721,23.6 16.124563,34.30496 9.970847,49.56 16.124563,64.81504 30.541721,75.52 47.347896,75.52"
             id="Fill-3"
             fill="#f3f3f3"
             style="fill:#000000" />
          <path
             d="m 47.347896,11.8 c 14.081803,0 26.670601,6.425493 35.040984,16.52 V 21.24 C 75.355765,8.5379556 62.298716,0 47.347896,0 32.396038,0 19.338989,8.5379556 12.306913,21.24 v 7.08 C 20.676257,18.225493 33.266093,11.8 47.347896,11.8"
             id="Fill-5"
             fill="#f3f3f3"
             style="fill:#000000" />
          <path
             d="m 45.526907,92.616679 c 0,-3.902915 -3.131366,-7.066364 -6.994699,-7.066364 -3.863334,0 -6.995738,3.163449 -6.995738,7.066364 0,3.902916 3.132404,7.066365 6.995738,7.066365 3.863333,0 6.994699,-3.163449 6.994699,-7.066365"
             id="Fill-7"
             fill="#f3f3f3"
             style="fill:#000000" />
          <path
             d="m 56.07876,85.55 c -3.864372,0 -6.9947,3.164498 -6.9947,7.066364 0,3.902916 3.130328,7.067414 6.9947,7.067414 3.863333,0 6.994699,-3.164498 6.994699,-7.067414 0,-3.901866 -3.131366,-7.066364 -6.994699,-7.066364"
             id="Fill-9"
             fill="#f3f3f3"
             style="fill:#000000" />
          <g
             id="Group-13"
             transform="translate(0,109.08444)"
             style="display:inline">
            <polygon
               id="Clip-12"
               points="32.121317,34.848704 0,34.848704 0,0.039228444 32.121317,0.039228444 " />
            <path
               d="M 24.099787,25.768473 32.121317,0.03922844 8.3318634,10.662375 c -4.8195628,2.184836 -8.33196722514,6.0416 -8.33196722514,11.813636 0,6.812533 5.52038252514,12.372693 12.26486382514,12.372693 6.47765,0 10.31295,-4.496587 11.835027,-9.080231"
               id="Fill-11"
               fill="#f3f3f3"
               style="fill:#000000" />
          </g>
          <path
             d="M 86.278273,119.7464 62.489858,109.12325 70.51035,134.8525 c 1.522076,4.58364 5.378142,9.08023 11.876557,9.08023 0.0042,0 0.0083,0.001 0.0135,0.001 6.743443,0 12.209836,-5.56016 12.209836,-12.3727 0,-5.77203 -3.511366,-9.62984 -8.331967,-11.81468"
             id="Fill-14"
             fill="#f3f3f3"
             style="fill:#000000" />
          <path
             d="m 47.305328,102.66 c -6.08623,0 -11.303443,3.62706 -13.724645,8.85052 H 61.062159 C 58.637841,106.29335 53.386366,102.66 47.305328,102.66"
             id="Fill-16"
             fill="#f3f3f3"
             style="fill:#000000" />
          <polygon
             id="Fill-18"
             fill="#f3f3f3"
             points="32.120902,118.59 32.120902,126.85 62.487678,126.85 62.489754,118.59 "
             style="fill:#000000" />
          <polygon
             id="Fill-20"
             fill="#f3f3f3"
             points="62.489754,133.93 32.120902,133.93 32.120902,142.19 62.487678,142.19 "
             style="fill:#000000" />
          <path
             d="M 61.062159,149.27 H 33.580683 c 2.424317,5.21717 7.643607,8.85052 13.724645,8.85052 6.086229,0 11.33459,-3.6281 13.756831,-8.85052"
             id="Fill-22"
             fill="#f3f3f3"
             style="fill:#000000" />
          <polygon
             id="Clip-25"
             points="0,236 94.610656,236 94.610656,0 0,0 " />
          <polygon
             id="Fill-24"
             fill="#f3f3f3"
             points="8.7784153,236 32.863771,236 32.863771,231.57579 8.7784153,231.57579 "
             style="fill:#000000" />
          <polygon
             id="Fill-26"
             fill="#f3f3f3"
             points="8.7784153,226.70999 32.863771,226.70999 32.863771,222.28578 8.7784153,222.28578 "
             style="fill:#000000" />
          <polygon
             id="Fill-27"
             fill="#f3f3f3"
             points="18.41235,217.41893 32.863771,217.41893 32.863771,212.99577 18.41235,212.99577 "
             style="fill:#000000" />
          <polygon
             id="Fill-28"
             fill="#f3f3f3"
             points="18.41235,208.12997 32.863771,208.12997 32.863771,203.70576 18.41235,203.70576 "
             style="fill:#000000" />
          <polygon
             id="Fill-29"
             fill="#f3f3f3"
             points="61.765574,236 85.849891,236 85.849891,231.57579 61.765574,231.57579 "
             style="fill:#000000" />
          <polygon
             id="Fill-30"
             fill="#f3f3f3"
             points="61.765574,226.70999 85.849891,226.70999 85.849891,222.28578 61.765574,222.28578 "
             style="fill:#000000" />
          <polygon
             id="Fill-31"
             fill="#f3f3f3"
             points="61.765574,217.41893 76.215956,217.41893 76.215956,212.99577 61.765574,212.99577 "
             style="fill:#000000" />
          <polygon
             id="Fill-32"
             fill="#f3f3f3"
             points="61.765574,208.12997 76.215956,208.12997 76.215956,203.70576 61.765574,203.70576 "
             style="fill:#000000" />
          <polygon
             id="Fill-33"
             fill="#f3f3f3"
             points="49.129224,194.41502 47.610262,198.83923 60.293541,198.83923 61.765781,194.62584 61.765781,198.83923 76.216164,198.83923 76.216164,194.41502 61.765781,194.41502 "
             style="fill:#000000" />
          <polygon
             id="Fill-34"
             fill="#f3f3f3"
             points="32.863978,198.83944 32.863978,194.62605 34.336219,198.83944 47.019497,198.83944 45.500535,194.41523 32.863978,194.41523 18.412557,194.41523 18.412557,198.83944 "
             style="fill:#000000" />
          <polygon
             id="Fill-35"
             fill="#f3f3f3"
             points="76.216164,185.1248 52.31977,185.1248 50.800809,189.54901 76.216164,189.54901 "
             style="fill:#000000" />
          <polygon
             id="Fill-36"
             fill="#f3f3f3"
             points="57.180863,170.96889 85.850098,170.96889 85.850098,166.54468 58.699825,166.54468 "
             style="fill:#000000" />
          <polygon
             id="Fill-37"
             fill="#f3f3f3"
             points="48.852322,231.57579 45.775984,231.57579 47.305328,236 "
             style="fill:#000000" />
          <polygon
             id="Fill-38"
             fill="#f3f3f3"
             points="44.075951,226.70957 50.552563,226.70957 52.099557,222.28536 42.529995,222.28536 "
             style="fill:#000000" />
          <polygon
             id="Fill-39"
             fill="#f3f3f3"
             points="40.829443,217.41914 53.799279,217.41914 55.345235,212.99598 39.283486,212.99598 "
             style="fill:#000000" />
          <polygon
             id="Fill-40"
             fill="#f3f3f3"
             points="37.582831,208.12966 57.046929,208.12966 58.591847,203.70544 36.036874,203.70544 "
             style="fill:#000000" />
          <polygon
             id="Fill-41"
             fill="#f3f3f3"
             points="42.309781,185.1248 18.41235,185.1248 18.41235,189.54901 43.828743,189.54901 "
             style="fill:#000000" />
          <polygon
             id="Fill-42"
             fill="#f3f3f3"
             points="53.991147,180.25827 85.850929,180.25827 85.850929,175.83406 55.510109,175.83406 "
             style="fill:#000000" />
          <polygon
             id="Fill-43"
             fill="#f3f3f3"
             points="8.7785191,180.25827 40.639339,180.25827 39.119339,175.83406 8.7785191,175.83406 "
             style="fill:#000000" />
          <polygon
             id="Fill-44"
             fill="#f3f3f3"
             points="37.447754,170.9691 35.928792,166.54488 8.7785191,166.54488 8.7785191,170.9691 "
             style="display:inline;fill:#000000" />
        </g>
      </g>
    </g>
  </g>
  <metadata
     id="metadata1">
    <rdf:RDF>
      <cc:Work
         rdf:about="">
        <dc:title>Group 57</dc:title>
      </cc:Work>
    </rdf:RDF>
  </metadata>
</svg>
