<?xml version="1.0" encoding="UTF-8"?>
<!-- Do not edit this file with editors other than draw.io -->
<!DOCTYPE svg PUBLIC "-//W3C//DTD SVG 1.1//EN" "http://www.w3.org/Graphics/SVG/1.1/DTD/svg11.dtd">
<svg xmlns="http://www.w3.org/2000/svg" style="background: transparent; background-color: transparent; color-scheme: light dark;" xmlns:xlink="http://www.w3.org/1999/xlink" version="1.1" width="25px" height="31px" viewBox="0 0 25 31" content="&lt;mxfile host=&quot;Electron&quot; agent=&quot;Mozilla/5.0 (X11; Linux x86_64) AppleWebKit/537.36 (KHTML, like Gecko) draw.io/29.0.3 Chrome/140.0.7339.249 Electron/38.7.0 Safari/537.36&quot; version=&quot;29.0.3&quot; scale=&quot;1&quot; border=&quot;0&quot;&gt;&#10;  &lt;diagram name=&quot;Strona-1&quot; id=&quot;fuBjB6cr4rMfzG5IW7tc&quot;&gt;&#10;    &lt;mxGraphModel dx=&quot;230&quot; dy=&quot;161&quot; grid=&quot;1&quot; gridSize=&quot;10&quot; guides=&quot;1&quot; tooltips=&quot;1&quot; connect=&quot;1&quot; arrows=&quot;1&quot; fold=&quot;1&quot; page=&quot;1&quot; pageScale=&quot;1&quot; pageWidth=&quot;827&quot; pageHeight=&quot;1169&quot; math=&quot;0&quot; shadow=&quot;0&quot;&gt;&#10;      &lt;root&gt;&#10;        &lt;mxCell id=&quot;0&quot; /&gt;&#10;        &lt;mxCell id=&quot;1&quot; parent=&quot;0&quot; /&gt;&#10;        &lt;mxCell id=&quot;2&quot; value=&quot;&quot; style=&quot;sketch=0;aspect=fixed;pointerEvents=1;shadow=0;dashed=0;html=1;labelPosition=center;verticalLabelPosition=bottom;verticalAlign=top;align=center;shape=mxgraph.mscae.enterprise.cluster_server;fillColor=default;&quot; vertex=&quot;1&quot; parent=&quot;1&quot;&gt;&#10;          &lt;mxGeometry x=&quot;390&quot; y=&quot;490&quot; width=&quot;24&quot; height=&quot;30&quot; as=&quot;geometry&quot; /&gt;&#10;        &lt;/mxCell&gt;&#10;      &lt;/root&gt;&#10;    &lt;/mxGraphModel&gt;&#10;  &lt;/diagram&gt;&#10;&lt;/mxfile&gt;&#10;"><defs/><g><g data-cell-id="0"><g data-cell-id="1"><g data-cell-id="zp7JnCK0SJr0WUqRHGYb-1"><g><rect x="0" y="0" width="24" height="30" fill="none" stroke="none" pointer-events="all"/><path d="M 0.02 23.64 L 0.02 1.14 C 0 0.86 0.09 0.59 0.27 0.37 C 0.44 0.16 0.7 0.02 0.98 0 L 10.22 0 C 10.86 0 11.38 0.5 11.42 1.14 L 11.42 5.18 L 7.15 5.18 C 6.14 5.35 5.35 6.15 5.18 7.17 L 5.18 17.86 L 1.72 17.86 L 1.72 19.04 L 5.18 19.04 L 5.18 20.21 L 1.72 20.21 L 1.72 21.33 L 5.18 21.33 L 5.18 23.64 Z M 6.32 7.47 C 6.28 6.91 6.69 6.42 7.24 6.36 L 16.49 6.36 C 17.13 6.32 17.69 6.82 17.74 7.47 L 17.74 30 L 6.32 30 Z M 1.72 4.58 L 9.72 4.57 L 9.72 3.46 L 1.72 3.46 Z M 8.05 9.85 L 8.05 10.96 L 15.98 10.96 L 15.98 9.85 Z M 16.04 24.25 L 7.99 24.25 L 7.99 25.39 L 16.04 25.39 Z M 7.99 26.54 L 7.99 27.71 L 16.04 27.71 L 16.04 26.39 Z M 24 23.64 L 18.87 23.64 L 18.87 21.33 L 22.27 21.33 L 22.27 20.21 L 18.87 20.21 L 18.87 19.04 L 22.3 19.04 L 22.3 17.86 L 18.87 17.86 L 18.87 7.17 C 18.67 6 17.66 5.16 16.49 5.18 L 12.61 5.18 L 12.61 1.14 C 12.64 0.54 13.11 0.04 13.71 0 L 22.97 0.09 C 23.54 0.1 24 0.57 24 1.14 Z M 22.27 4.61 L 22.27 3.46 L 14.25 3.46 L 14.25 4.61 Z" fill="#ffffff" stroke="#000000" stroke-miterlimit="10" pointer-events="all" style="fill: light-dark(#ffffff, var(--ge-dark-color, #121212)); stroke: light-dark(rgb(0, 0, 0), rgb(255, 255, 255));"/></g></g></g></g></g></svg>