<?xml version="1.0" encoding="UTF-8"?>
<!-- Do not edit this file with editors other than draw.io -->
<!DOCTYPE svg PUBLIC "-//W3C//DTD SVG 1.1//EN" "http://www.w3.org/Graphics/SVG/1.1/DTD/svg11.dtd">
<svg xmlns="http://www.w3.org/2000/svg" style="background: transparent; background-color: transparent; color-scheme: light dark;" xmlns:xlink="http://www.w3.org/1999/xlink" version="1.1" width="50px" height="40px" viewBox="0 0 50 40" content="&lt;mxfile host=&quot;Electron&quot; agent=&quot;Mozilla/5.0 (X11; Linux x86_64) AppleWebKit/537.36 (KHTML, like Gecko) draw.io/29.0.3 Chrome/140.0.7339.249 Electron/38.7.0 Safari/537.36&quot; version=&quot;29.0.3&quot; scale=&quot;1&quot; border=&quot;0&quot;&gt;&#10;  &lt;diagram name=&quot;Strona-1&quot; id=&quot;4t09ED-HUl6jRUY6EIh2&quot;&gt;&#10;    &lt;mxGraphModel dx=&quot;1426&quot; dy=&quot;1087&quot; grid=&quot;1&quot; gridSize=&quot;10&quot; guides=&quot;1&quot; tooltips=&quot;1&quot; connect=&quot;1&quot; arrows=&quot;1&quot; fold=&quot;1&quot; page=&quot;1&quot; pageScale=&quot;1&quot; pageWidth=&quot;827&quot; pageHeight=&quot;1169&quot; math=&quot;0&quot; shadow=&quot;0&quot;&gt;&#10;      &lt;root&gt;&#10;        &lt;mxCell id=&quot;0&quot; /&gt;&#10;        &lt;mxCell id=&quot;1&quot; parent=&quot;0&quot; /&gt;&#10;        &lt;mxCell id=&quot;2&quot; value=&quot;&quot; style=&quot;image;sketch=0;aspect=fixed;html=1;points=[];align=center;fontSize=12;image=img/lib/mscae/ResourceGroup.svg;&quot; vertex=&quot;1&quot; parent=&quot;1&quot;&gt;&#10;          &lt;mxGeometry x=&quot;390&quot; y=&quot;540&quot; width=&quot;50&quot; height=&quot;40&quot; as=&quot;geometry&quot; /&gt;&#10;        &lt;/mxCell&gt;&#10;      &lt;/root&gt;&#10;    &lt;/mxGraphModel&gt;&#10;  &lt;/diagram&gt;&#10;&lt;/mxfile&gt;&#10;"><defs/><g><g data-cell-id="0"><g data-cell-id="1"><g data-cell-id="TYsksfOEwhFhanI-qvVF-1"><g><g><svg xmlns="http://www.w3.org/2000/svg" xmlns:xlink="http://www.w3.org/1999/xlink" width="50" height="40" x="0" y="0" viewBox="0 0 50 40.342" style="font-family: initial;"><path d="M25.047 17.818a.43.43 0 0 1-.22-.064l-14.71-8.5c-.14-.08-.223-.228-.223-.39s.083-.304.223-.382L24.732.058a.45.45 0 0 1 .442 0l14.714 8.495c.133.078.22.224.22.382a.45.45 0 0 1-.221.387l-14.62 8.433a.44.44 0 0 1-.222.063" fill="#3999c6"/><g fill="#59b4d9"><path d="M22.932 38.455c-.08 0-.158-.02-.226-.06L8.042 29.932c-.142-.08-.226-.224-.226-.386V12.56a.45.45 0 0 1 .226-.389c.134-.077.306-.077.448 0l14.662 8.464a.45.45 0 0 1 .218.387V38c0 .163-.083.305-.218.386a.44.44 0 0 1-.22.059"/><use xlink:href="#B"/></g><use xlink:href="#B" opacity=".5" fill="#fff"/><path d="M9.558 40.342a1.45 1.45 0 0 1-.726-.195l-6.845-3.952C.835 35.53 0 34.082 0 32.753V7.6a4.21 4.21 0 0 1 1.987-3.441L8.832.196c.697-.4 1.586-.163 1.987.532s.163 1.585-.532 1.987L3.442 6.667c-.243.14-.532.64-.532.922v25.164c0 .28.3.782.532.922l6.845 3.952c.696.402.934 1.3.532 1.987-.27.467-.758.728-1.26.728zM40.442 0a1.45 1.45 0 0 1 .726.195l6.845 3.952C49.165 4.813 50 6.26 50 7.6v25.164a4.21 4.21 0 0 1-1.987 3.441l-6.845 3.952c-.697.4-1.586.163-1.987-.532s-.163-1.585.532-1.987l6.845-3.952c.243-.14.532-.64.532-.922V7.6c0-.28-.3-.782-.532-.922l-6.845-3.952c-.696-.402-.934-1.3-.532-1.987A1.45 1.45 0 0 1 40.442 0z" fill="currentColor"/><defs><path id="B" d="M27.08 38.455c-.075 0-.152-.02-.226-.06-.136-.08-.22-.223-.22-.386V21.133a.45.45 0 0 1 .22-.387l14.66-8.46a.46.46 0 0 1 .448 0 .45.45 0 0 1 .22.385v16.877c0 .162-.085.306-.22.386l-14.665 8.464a.4.4 0 0 1-.217.058"/></defs></svg></g></g></g></g></g></g></svg>
