<svg version="1.1" id="Ibm-Power-Vs--Streamline-Carbon" xmlns="http://www.w3.org/2000/svg" xmlns:xlink="http://www.w3.org/1999/xlink" x="0" y="0" viewBox="0 0 16 16" xml:space="preserve" enable-background="new 0 0 32 32" height="16" width="16">
  <desc>
    Ibm Power Vs Streamline Icon: https://streamlinehq.com
  </desc>
  <path d="M8 12.5c-1 0 -2 -0.35 -2.8 -1l0.65 -0.8c0.65 0.5 1.4 0.75 2.2 0.75 1.95 0 3.5 -1.55 3.5 -3.5 0 -0.15 0 -0.35 -0.05 -0.5l1 -0.15 0 0.7c0 2.5 -2 4.5 -4.5 4.5z" fill="currentColor" stroke-width="0.5"></path>
  <path d="M3.55 8.65C3.5 8.45 3.5 8.2 3.5 8c0 -2.5 2 -4.5 4.5 -4.5 1 0 2 0.35 2.8 1l-0.65 0.8C9.55 4.75 8.8 4.5 8 4.5c-1.95 0 -3.5 1.55 -3.5 3.5 0 0.15 0 0.35 0.05 0.5l-1 0.15z" fill="currentColor" stroke-width="0.5"></path>
  <path d="M11 13.5a0.5 0.5 0 1 0 1 0 0.5 0.5 0 1 0 -1 0" fill="currentColor" stroke-width="0.5"></path>
  <path d="M4 10a0.5 0.5 0 1 0 1 0 0.5 0.5 0 1 0 -1 0" fill="currentColor" stroke-width="0.5"></path>
  <path d="M11 6a0.5 0.5 0 1 0 1 0 0.5 0.5 0 1 0 -1 0" fill="currentColor" stroke-width="0.5"></path>
  <path d="M7 8a1 1 0 1 0 2 0 1 1 0 1 0 -2 0" fill="currentColor" stroke-width="0.5"></path>
  <path d="M4 2.5a0.5 0.5 0 1 0 1 0 0.5 0.5 0 1 0 -1 0" fill="currentColor" stroke-width="0.5"></path>
  <path d="M8 15C4.15 15 1 11.85 1 8c0 -1.85 0.75 -3.65 2.05 -4.95l0.7 0.7C2.6 4.9 2 6.4 2 8c0 3.3 2.7 6 6 6 0.7 0 1.4 -0.1 2.05 -0.35l0.35 0.95c-0.75 0.25 -1.6 0.4 -2.4 0.4z" fill="currentColor" stroke-width="0.5"></path>
  <path d="m12.95 12.95 -0.7 -0.7c1.15 -1.15 1.75 -2.65 1.75 -4.25 0 -3.3 -2.7 -6 -6 -6 -0.7 0 -1.4 0.1 -2.05 0.35l-0.35 -0.95c0.75 -0.25 1.6 -0.4 2.4 -0.4 3.85 0 7 3.15 7 7 0 1.85 -0.75 3.65 -2.05 4.95z" fill="currentColor" stroke-width="0.5"></path>
  <path id="_x3C_Transparent_Rectangle_x3E__589_" d="M0 0h16v16H0Z" fill="none" stroke-width="0.5"></path>
</svg>