<?xml version="1.0" encoding="UTF-8" standalone="no"?>
<!-- Generator: Adobe Illustrator 20.0.0, SVG Export Plug-In . SVG Version: 6.00 Build 0)  -->

<svg
   version="1.1"
   id="Layer_1"
   x="0px"
   y="0px"
   width="633.79999"
   height="182.7"
   viewBox="0 0 633.79999 182.69999"
   xml:space="preserve"
   sodipodi:docname="ibm-eye-bee-m-light.svg"
   inkscape:version="1.4.2 (ebf0e940d0, 2025-05-08)"
   xmlns:inkscape="http://www.inkscape.org/namespaces/inkscape"
   xmlns:sodipodi="http://sodipodi.sourceforge.net/DTD/sodipodi-0.dtd"
   xmlns="http://www.w3.org/2000/svg"
   xmlns:svg="http://www.w3.org/2000/svg"><defs
   id="defs1" /><sodipodi:namedview
   id="namedview1"
   pagecolor="#505050"
   bordercolor="#ffffff"
   borderopacity="1"
   inkscape:showpageshadow="0"
   inkscape:pageopacity="0"
   inkscape:pagecheckerboard="1"
   inkscape:deskcolor="#505050"
   showgrid="false"
   inkscape:zoom="1.3696231"
   inkscape:cx="317.24055"
   inkscape:cy="90.900917"
   inkscape:window-width="2560"
   inkscape:window-height="1564"
   inkscape:window-x="0"
   inkscape:window-y="0"
   inkscape:window-maximized="1"
   inkscape:current-layer="Group-8" />
<style
   type="text/css"
   id="style1">
	.st0{fill:#FFFFFF;}
	.st1{fill:#231F20;}
	.st2{fill:none;}
</style>
<title
   id="title1">Group 8</title>
<desc
   id="desc1">Created with Sketch.</desc>
<g
   id="Desktop"
   transform="translate(-339.7,-278.8)">
	<g
   id="Icons-Copy-2"
   transform="translate(-352,-1798)">
		<g
   id="Group-8"
   transform="translate(352,1798)">
			<g
   id="Group-3">
				<rect
   id="Rectangle-4-Copy"
   class="st0"
   width="1313.5"
   height="738.90002"
   x="0"
   y="0" />
			</g>
			<g
   id="Group-53"
   transform="translate(240,197)"
   style="display:inline">
				<path
   id="Fill-1"
   class="st1"
   d="m 213.4,201.7 c 0,12.6 -10.2,22.8 -22.7,22.8 -12.6,0 -22.7,-10.2 -22.7,-22.8 0,-12.6 10.2,-22.8 22.7,-22.8 12.5,-0.1 22.7,10.2 22.7,22.8" />
				<path
   id="Fill-3"
   class="st1"
   d="m 190.7,253 c -28.3,0 -51.2,-23 -51.2,-51.4 0,-28.4 22.9,-51.4 51.2,-51.4 28.3,0 51.2,23 51.2,51.4 0,28.4 -23,51.4 -51.2,51.4 m 0,-114.1 c -40.9,0 -76,25.9 -91,62.8 15,36.9 50.1,62.8 91,62.8 40.9,0 76,-25.9 91,-62.8 -15.1,-36.9 -50.1,-62.8 -91,-62.8" />
				<g
   id="Group-7"
   transform="translate(3.569721,3.58e-4)">
					<polygon
   id="Clip-6"
   class="st2"
   points="101.8,81.8 272.4,81.8 272.4,150.3 101.8,150.3 " />
					<path
   id="Fill-5"
   class="st1"
   d="m 187.1,81.8 c -36.4,0 -68.2,20.6 -85.3,51.4 v 17.1 c 20.4,-24.4 51,-39.9 85.3,-39.9 34.3,0 64.9,15.5 85.3,39.9 V 133.2 C 255.2,102.5 223.5,81.8 187.1,81.8" />
				</g>
				<path
   id="Fill-8"
   d="m 413.7,106.1 c 0,9.4 -7.6,17.1 -17,17.1 -9.4,0 -17,-7.7 -17,-17.1 0,-9.4 7.6,-17.1 17,-17.1 9.4,0 17,7.6 17,17.1" />
				<path
   id="Fill-10"
   d="m 456.4,106.1 c 0,9.4 -7.6,17.1 -17,17.1 -9.4,0 -17,-7.7 -17,-17.1 0,-9.4 7.6,-17.1 17,-17.1 9.4,0 17,7.6 17,17.1" />
				<path
   id="Fill-12"
   d="m 323.2,171.7 57.9,-25.7 -19.5,62.2 c -3.7,11.1 -13,22 -28.8,22 -16.4,0 -29.8,-13.4 -29.8,-29.9 -0.1,-14 8.5,-23.4 20.2,-28.6" />
				<path
   id="Fill-14"
   d="M 512.9,171.7 455,146 l 19.5,62.2 c 3.7,11.1 13.1,22 28.9,22 0,0 0,0 0,0 16.4,0 29.7,-13.4 29.7,-29.9 0,-14 -8.5,-23.4 -20.2,-28.6" />
				<path
   id="Fill-16"
   d="m 451.5,151.7 c -5.9,-12.6 -18.7,-21.4 -33.5,-21.4 -14.8,0 -27.5,8.8 -33.4,21.4 z" />
				<polygon
   id="Fill-18"
   points="455,188.8 381.1,188.8 381.1,168.9 455,168.9 " />
				<polygon
   id="Fill-20"
   points="455,225.9 381.1,225.9 381.1,206 455,206 " />
				<g
   id="Group-24"
   transform="translate(199.90438,112.87536)">
					<polygon
   id="Clip-23"
   class="st2"
   points="184.7,130.2 251.6,130.2 251.6,151.6 184.7,151.6 " />
					<path
   id="Fill-22"
   d="m 184.7,130.2 c 5.9,12.6 18.7,21.4 33.5,21.4 14.8,0 27.5,-8.8 33.4,-21.4 z" />
				</g>
				<polygon
   id="Fill-25"
   points="643.8,248.4 635.7,248.4 639.7,260.2 " />
				<polygon
   id="Fill-27"
   points="631.9,237.7 647.6,237.7 651.7,225.9 627.8,225.9 " />
				<polygon
   id="Fill-29"
   points="624.1,215.2 655.4,215.2 659.5,203.5 620,203.5 " />
				<polygon
   id="Fill-31"
   points="616.2,192.8 663.3,192.8 667.4,181 612.1,181 " />
				<polygon
   id="Fill-33"
   points="569.4,147.8 632.7,147.8 628.7,136.1 569.4,136.1 " />
				<g
   id="Group-37"
   transform="translate(390.88446,21.500358)">
					<polygon
   id="Clip-36"
   class="st2"
   points="263.6,92.1 342.6,92.1 342.6,103.9 263.6,103.9 " />
					<polygon
   id="Fill-35"
   points="263.6,103.9 342.6,103.9 342.6,92.1 267.7,92.1 " />
				</g>
				<polygon
   id="Fill-38"
   points="666.4,91.2 662.3,102.9 733.5,102.9 733.5,91.2 " />
				<polygon
   id="Clip-41"
   class="st2"
   points="99.7,264.4 733.5,264.4 733.5,81.8 99.7,81.8 " />
				<polygon
   id="Fill-40"
   points="546,260.2 604.6,260.2 604.6,248.4 546,248.4 " />
				<polygon
   id="Fill-42"
   points="546,237.7 604.6,237.7 604.6,225.9 546,225.9 " />
				<polygon
   id="Fill-43"
   points="569.4,215.2 604.6,215.2 604.6,203.5 569.4,203.5 " />
				<polygon
   id="Fill-44"
   points="569.4,192.8 604.6,192.8 604.6,181 569.4,181 " />
				<polygon
   id="Fill-45"
   points="710.1,136.1 650.8,136.1 646.7,147.8 710.1,147.8 " />
				<polygon
   id="Fill-46"
   points="674.9,192.8 710.1,192.8 710.1,181 674.9,181 " />
				<polygon
   id="Fill-47"
   points="674.9,215.2 710.1,215.2 710.1,203.5 674.9,203.5 " />
				<polygon
   id="Fill-48"
   points="674.9,237.7 733.5,237.7 733.5,225.9 674.9,225.9 " />
				<polygon
   id="Fill-49"
   points="674.9,260.2 733.5,260.2 733.5,248.4 674.9,248.4 " />
				<polygon
   id="Fill-50"
   points="625,125.4 620.9,113.6 546,113.6 546,125.4 " />
				<polygon
   id="Fill-51"
   points="617.2,102.9 613.1,91.2 546,91.2 546,102.9 " />
				<polygon
   id="Fill-52"
   points="643,158.5 639.7,168.1 636.5,158.5 569.4,158.5 569.4,170.3 604.6,170.3 604.6,159.5 608.4,170.3 671.1,170.3 674.9,159.5 674.9,170.3 710.1,170.3 710.1,158.5 674.9,158.5 " />
			</g>
		</g>
	</g>
</g>
</svg>
