<svg xmlns="http://www.w3.org/2000/svg" fill="none" viewBox="-0.855 -0.855 24 24" id="Give-Gift--Streamline-Core" height="24" width="24">
  <desc>
    Give Gift Streamline Icon: https://streamlinehq.com
  </desc>
  <g id="give-gift--reward-social-rating-media-queen-vip-gift">
    <path id="Vector" stroke="currentColor" stroke-linecap="round" stroke-linejoin="round" d="M21.49392857142857 3.9803571428571427h-11.145v7.960714285714285h11.145v-7.960714285714285Z" stroke-width="1.71"></path>
    <path id="Vector_2" stroke="currentColor" stroke-linecap="round" stroke-linejoin="round" d="M15.92142857142857 3.9803571428571427v7.960714285714285" stroke-width="1.71"></path>
    <path id="Vector_3" stroke="currentColor" stroke-linecap="round" stroke-linejoin="round" d="m13.533214285714285 0.7960714285714285 2.3882142857142856 3.184285714285714 2.3882142857142856 -3.184285714285714" stroke-width="1.71"></path>
    <path id="Vector 294" stroke="currentColor" stroke-linecap="round" stroke-linejoin="round" d="M0.795877187142857 17.512775357142857 4.686647635714285 20.755174285714283c0.5722639071428571 0.4768467857142857 1.29360015 0.7379582142857143 2.03853195 0.7379582142857143l10.2574122 0c0.7328633571428571 0 1.3268918571428572 -0.5940285 1.3268918571428572 -1.3267326428571429 0 -1.4655675 -1.188057 -2.6536245 -2.6536085785714283 -2.6536245H8.52460352142857" stroke-width="1.71"></path>
    <path id="Vector 295" stroke="currentColor" stroke-linecap="round" stroke-linejoin="round" d="m5.572308942857143 15.920648421428572 1.1941071428571428 1.1940912214285715c0.6594814928571429 0.6594655714285714 1.7287168714285712 0.6594655714285714 2.3882142857142856 0 0.6594814928571429 -0.6594655714285714 0.6594814928571429 -1.7287009499999997 0 -2.388198364285714L7.301025814285714 12.872952642857143c-0.5971650214285714 -0.5971809428571428 -1.4071040142857143 -0.9326613642857143 -2.2516243499999997 -0.9326613642857143H0.795877187142857" stroke-width="1.71"></path>
  </g>
</svg>